<svg xmlns="http://www.w3.org/2000/svg" viewBox="0 0 256 256">
  <defs>
    <linearGradient id="g" x1="0" y1="0" x2="1" y2="1">
      <stop offset="0" stop-color="#00e5ff"/>
      <stop offset="1" stop-color="#6d28d9"/>
    </linearGradient>
  </defs>
  <rect width="256" height="256" rx="64" fill="#0a0b1a"/>
  <path fill="url(#g)" d="M72 140c0-28 22-50 50-50h36c19 0 34 15 34 34 0 13-7 24-18 30 6 6 10 14 10 23 0 17-13 30-30 30h-32c-28 0-50-22-50-50zm50-30c-17 0-30 13-30 30s13 30 30 30h32c6 0 10-4 10-10s-4-10-10-10h-10c-6 0-10-4-10-10s4-10 10-10h14c8 0 14-6 14-14s-6-14-14-14h-36z"/>
</svg>

