<svg width="512" height="512" viewBox="0 0 512 512" fill="none" xmlns="http://www.w3.org/2000/svg">
  <defs>
    <linearGradient id="g" x1="0" y1="0" x2="1" y2="1">
      <stop offset="0" stop-color="#6D28D9"/>
      <stop offset="1" stop-color="#00E5FF"/>
    </linearGradient>
  </defs>
  <rect width="512" height="512" rx="120" fill="#0a0b1a"/>
  <path d="M110 270c40 60 120 90 190 80 50-7 80-30 90-66 7-24 3-51-14-75-8-11-21-10-30-2-7 6-14 16-23 16-28 0-37-62-76-62-23 0-40 22-46 44-1 4-5 6-9 5-20-6-44 0-57 19-16 25-17 47-15 41z" fill="url(#g)"/>
  <circle cx="292" cy="226" r="6" fill="#eaf2ff"/>
</svg>
