<svg xmlns="http://www.w3.org/2000/svg" viewBox="0 0 256 256" width="256" height="256" role="img" aria-label="Whale AI">
  <defs>
    <linearGradient id="g" x1="0" y1="0" x2="1" y2="1">
      <stop offset="0" stop-color="#00e5ff"/>
      <stop offset="1" stop-color="#6d28d9"/>
    </linearGradient>
  </defs>
  <rect width="256" height="256" rx="56" fill="#0a0b1a"/>
  <path fill="url(#g)" d="M54 144c0-34 28-62 62-62h44c23 0 42 19 42 42 0 16-9 30-22 37 8 7 13 17 13 28 0 21-17 38-38 38H116c-34 0-62-28-62-62zm62-36c-20 0-36 16-36 36s16 36 36 36h39c7 0 12-5 12-12s-5-12-12-12h-15c-7 0-12-5-12-12s5-12 12-12h20c9 0 16-7 16-16s-7-16-16-16h-44z"/>
  <circle cx="146" cy="123" r="6" fill="#0a0b1a"/>
  <path d="M170 103c5-10 13-18 24-22" fill="none" stroke="url(#g)" stroke-width="10" stroke-linecap="round"/>
</svg>

